<svg width="31" height="31" viewBox="0 0 31 31" fill="none" xmlns="http://www.w3.org/2000/svg">
<circle cx="13" cy="18" r="11.5" stroke="#546D82" stroke-width="3"/>
<g clip-path="url(#clip0_342_1155)">
<path d="M17.3658 13.635C16.2843 12.5901 15.4419 11.3233 14.8968 9.92174L11.2751 13.5397C10.2363 14.5792 10.7808 16.6897 12.5433 18.4537C13.2377 19.1743 14.0876 19.7267 15.0281 20.0685C15.3662 20.1846 15.7206 20.2463 16.0781 20.2515C16.332 20.2605 16.5851 20.2183 16.8224 20.1273C17.0596 20.0363 17.276 19.8985 17.4588 19.722L21.0746 16.1055C19.6749 15.5586 18.4098 14.7159 17.3658 13.635Z" fill="#546D82"/>
<path d="M28.5589 2.44199C26.2129 0.095994 23.4371 -0.666756 22.1021 0.667494L16.6519 6.11774C15.3176 7.45274 16.0804 10.2277 18.4264 12.5745C19.9946 14.142 21.7534 15 23.1469 15C23.4652 15.0127 23.783 14.9613 24.0811 14.8489C24.3792 14.7364 24.6517 14.5651 24.8824 14.3452L30.3326 8.89424C31.6676 7.56299 30.9049 4.78799 28.5589 2.44199ZM29.2721 7.83674C29.0066 8.10149 28.4216 8.12024 27.7061 7.88549C26.6587 7.49213 25.7126 6.86942 24.9371 6.06299C23.0726 4.19999 22.6406 2.24999 23.1626 1.72499C23.3476 1.57347 23.5843 1.49978 23.8226 1.51949C25.2467 1.7134 26.5523 2.41682 27.4976 3.49949C29.3621 5.36699 29.7941 7.31474 29.2751 7.83674H29.2721Z" fill="#546D82"/>
<path d="M11.485 19.515C10.7736 18.8181 10.1916 18.0004 9.766 17.1L7.38925 19.4775C7.18078 19.7149 7.04381 20.0065 6.99417 20.3186C6.94453 20.6306 6.98425 20.9503 7.10875 21.2407C7.32816 21.8498 7.68429 22.4004 8.14975 22.8502C8.59977 23.3159 9.15067 23.672 9.76 23.8912C9.99091 23.9702 10.233 24.0118 10.477 24.0142C10.6695 24.0203 10.8612 23.9876 11.0407 23.9181C11.2203 23.8487 11.3842 23.7439 11.5225 23.61L13.9075 21.225C13.006 20.8014 12.186 20.2226 11.485 19.515Z" fill="#546D82"/>
</g>
<defs>
<clipPath id="clip0_342_1155">
<rect width="24" height="24" fill="white" transform="translate(7)"/>
</clipPath>
</defs>
</svg>
