<svg width="30" height="31" viewBox="0 0 30 31" fill="none" xmlns="http://www.w3.org/2000/svg">
<circle cx="13" cy="18" r="11.5" stroke="#546D82" stroke-width="3"/>
<path d="M28.2354 1.76458C28.0458 1.57497 27.8207 1.42457 27.573 1.32195C27.3253 1.21934 27.0598 1.16652 26.7916 1.16652C26.5235 1.16652 26.258 1.21934 26.0103 1.32195C25.7625 1.42457 25.5375 1.57497 25.3479 1.76458L14.075 11.8131C15.0771 12.0435 15.9943 12.5514 16.7214 13.2785C17.4486 14.0057 17.9564 14.9228 18.1869 15.925L28.2354 4.65208C28.425 4.46249 28.5754 4.23741 28.678 3.98969C28.7806 3.74197 28.8334 3.47647 28.8334 3.20833C28.8334 2.9402 28.7806 2.67469 28.678 2.42697C28.5754 2.17925 28.425 1.95417 28.2354 1.76458Z" fill="#546D82"/>
<path d="M12.832 12.8333C12.2624 12.8318 11.6982 12.9432 11.1721 13.1612C10.6459 13.3792 10.1682 13.6994 9.76655 14.1032C8.19155 15.6782 7.86664 20.9212 7.83455 21.5116C7.82962 21.5958 7.84196 21.6801 7.87082 21.7594C7.89967 21.8387 7.94442 21.9112 8.00233 21.9726C8.06024 22.0339 8.13008 22.0828 8.20756 22.1162C8.28504 22.1495 8.36852 22.1667 8.45289 22.1667C8.46416 22.1673 8.47545 22.1673 8.48672 22.1667C9.07939 22.1346 14.3241 21.8079 15.8951 20.2347C16.5014 19.6285 16.9144 18.8562 17.0818 18.0154C17.2493 17.1746 17.1636 16.303 16.8358 15.5108C16.508 14.7187 15.9526 14.0415 15.2399 13.5649C14.5273 13.0883 13.6893 12.8337 12.832 12.8333Z" fill="#546D82"/>
</svg>
