<svg width="28" height="26" viewBox="0 0 28 26" fill="none" xmlns="http://www.w3.org/2000/svg">
<circle cx="15" cy="12.9998" r="11.5" stroke="#6D7A64" stroke-width="3"/>
<path d="M15.5 12.2239C17.7361 12.2239 20 11.2498 20 9.38679V7.49536C20 3.77018 11 3.77018 11 7.49536V9.38679C11 11.2498 13.2639 12.2239 15.5 12.2239Z" fill="#6D7A64"/>
<path d="M20.102 13.0943L12.4661 15.3233L3.51894 0.893893C3.26823 0.482659 2.85579 0.182865 2.37235 0.0604627C1.88892 -0.0619393 1.37409 0.00307699 0.941127 0.241209C0.508163 0.47934 0.192528 0.87108 0.0636577 1.33025C-0.0652122 1.78942 0.00323952 2.27841 0.253954 2.68964L9.8421 18.1096C9.97071 18.3211 10.1556 18.4969 10.3783 18.6191C10.601 18.7414 10.8536 18.8059 11.1108 18.8061H20.5333C20.9223 18.8061 21.2953 18.6594 21.5704 18.3981C21.8455 18.1368 22 17.7825 22 17.413V14.4233C21.9996 14.2055 21.9454 13.9909 21.8419 13.7966C21.7383 13.6023 21.5882 13.4337 21.4036 13.3045C21.2191 13.1753 21.0052 13.0889 20.7791 13.0524C20.5531 13.0159 20.3212 13.0303 20.102 13.0943Z" fill="#6D7A64"/>
</svg>
