<svg width="26" height="26" viewBox="0 0 26 26" fill="none" xmlns="http://www.w3.org/2000/svg">
<circle cx="13" cy="13" r="11.5" stroke="#6D7A64" stroke-width="3"/>
<g clip-path="url(#clip0_342_1181)">
<path d="M18.25 8.62501H16.6033L15.5375 6.48389C15.4645 6.33777 15.352 6.215 15.2129 6.12949C15.0737 6.04397 14.9133 5.99912 14.75 6.00001H11.25C11.0874 5.99994 10.928 6.04517 10.7897 6.13064C10.6513 6.21611 10.5396 6.33843 10.4669 6.48389L9.39675 8.62501H7.75C7.28587 8.62501 6.84075 8.80939 6.51256 9.13758C6.18437 9.46576 6 9.91088 6 10.375V17.375C6 17.8391 6.18437 18.2843 6.51256 18.6124C6.84075 18.9406 7.28587 19.125 7.75 19.125H18.25C18.7141 19.125 19.1592 18.9406 19.4874 18.6124C19.8156 18.2843 20 17.8391 20 17.375V10.375C20 9.91088 19.8156 9.46576 19.4874 9.13758C19.1592 8.80939 18.7141 8.62501 18.25 8.62501ZM13 16.5C12.4808 16.5 11.9733 16.3461 11.5416 16.0576C11.1099 15.7692 10.7735 15.3592 10.5748 14.8796C10.3761 14.3999 10.3242 13.8721 10.4254 13.3629C10.5267 12.8537 10.7767 12.386 11.1438 12.0189C11.511 11.6517 11.9787 11.4017 12.4879 11.3005C12.9971 11.1992 13.5249 11.2511 14.0045 11.4498C14.4842 11.6485 14.8942 11.985 15.1826 12.4166C15.471 12.8483 15.625 13.3558 15.625 13.875C15.625 14.5712 15.3484 15.2389 14.8562 15.7312C14.3639 16.2235 13.6962 16.5 13 16.5Z" fill="#6D7A64"/>
</g>
<defs>
<clipPath id="clip0_342_1181">
<rect width="14" height="14" fill="white" transform="translate(6 6)"/>
</clipPath>
</defs>
</svg>
