<svg width="35" height="37" viewBox="0 0 35 37" fill="none" xmlns="http://www.w3.org/2000/svg">
<circle cx="13" cy="24" r="11.5" stroke="#546D82" stroke-width="3"/>
<g clip-path="url(#clip0_342_1174)">
<path d="M24.7333 11.1696L20.9302 8.58865C20.4346 8.25226 19.7621 8.38099 19.4257 8.87666L8.24148 25.3567C7.90509 25.8524 8.03382 26.5249 8.52949 26.8613L12.3326 29.4422C12.5798 29.61 12.8721 29.6621 13.1445 29.61C13.4169 29.5578 13.6693 29.4014 13.8371 29.1542L25.0213 12.6741C25.3577 12.1785 25.229 11.506 24.7333 11.1696ZM20.3958 15.6322L18.3852 14.2677L20.61 10.9894L22.6206 12.3539L20.3958 15.6322Z" fill="#546D82"/>
<path d="M28.9815 2.86366C28.1016 3.03211 27.2484 2.45311 27.08 1.57317C26.9676 0.985839 26.3996 0.600413 25.8123 0.712848C25.225 0.825283 24.8395 1.39321 24.952 1.98055C25.1204 2.86049 24.5414 3.71365 23.6615 3.8821C23.0742 3.99453 22.6887 4.56246 22.8012 5.1498C22.9136 5.73713 23.4815 6.12256 24.0689 6.01012C24.9488 5.84167 25.802 6.42067 25.9704 7.30061C26.0828 7.88795 26.6508 8.27337 27.2381 8.16094C27.8254 8.0485 28.2109 7.48057 28.0984 6.89324C27.93 6.0133 28.509 5.16014 29.3889 4.99169C29.9763 4.87925 30.3617 4.31132 30.2492 3.72399C30.1368 3.13665 29.5689 2.75123 28.9815 2.86366Z" fill="#546D82"/>
<path d="M15.1494 5.5116C14.2695 5.68005 13.4163 5.10105 13.2478 4.22111C13.1354 3.63377 12.5675 3.24835 11.9801 3.36078C11.3928 3.47322 11.0074 4.04115 11.1198 4.62848C11.2883 5.50842 10.7093 6.36158 9.82933 6.53003C9.242 6.64246 8.85657 7.21039 8.96901 7.79773C9.08144 8.38506 9.64937 8.77049 10.2367 8.65806C11.1166 8.48961 11.9698 9.06861 12.1383 9.94854C12.2507 10.5359 12.8186 10.9213 13.406 10.8089C13.9933 10.6964 14.3787 10.1285 14.2663 9.54117C14.0978 8.66123 14.6768 7.80807 15.5568 7.63962C16.1441 7.52719 16.5295 6.95926 16.4171 6.37192C16.3047 5.78459 15.7367 5.39916 15.1494 5.5116Z" fill="#546D82"/>
<path d="M26.7167 19.8423C27.5966 19.6738 28.4498 20.2528 28.6182 21.1328C28.7307 21.7201 29.2986 22.1055 29.8859 21.9931C30.4733 21.8807 30.8587 21.3127 30.7463 20.7254C30.5778 19.8455 31.1568 18.9923 32.0367 18.8239C32.6241 18.7114 33.0095 18.1435 32.8971 17.5562C32.7846 16.9688 32.2167 16.5834 31.6294 16.6958C30.7494 16.8643 29.8963 16.2853 29.7278 15.4053C29.6154 14.818 29.0475 14.4326 28.4601 14.545C27.8728 14.6575 27.4874 15.2254 27.5998 15.8127C27.7683 16.6927 27.1893 17.5458 26.3093 17.7143C25.722 17.8267 25.3366 18.3946 25.449 18.982C25.5614 19.5693 26.1294 19.9547 26.7167 19.8423Z" fill="#546D82"/>
</g>
<defs>
<clipPath id="clip0_342_1174">
<rect width="26" height="26" fill="white" transform="translate(4 4.88843) rotate(-10.8372)"/>
</clipPath>
</defs>
</svg>
